<mxfile host="app.diagrams.net" modified="2021-09-30T08:18:40.323Z" agent="5.0 (Windows NT 10.0; Win64; x64) AppleWebKit/537.36 (KHTML, like Gecko) Chrome/94.0.4606.61 Safari/537.36 Edg/94.0.992.31" etag="M6q8tMhdF57MJsgQMyaR" version="14.9.8" type="github">
  <diagram id="_29d7AtrGtpmE3hFZDK0" name="Page-1">
    <mxGraphModel dx="1043" dy="624" grid="1" gridSize="10" guides="1" tooltips="1" connect="1" arrows="1" fold="1" page="1" pageScale="1" pageWidth="850" pageHeight="1100" math="0" shadow="0">
      <root>
        <mxCell id="0" />
        <mxCell id="1" parent="0" />
        <mxCell id="0cM0iwl9llJngKbin_6Q-17" style="edgeStyle=orthogonalEdgeStyle;rounded=0;orthogonalLoop=1;jettySize=auto;html=1;exitX=0.5;exitY=1;exitDx=0;exitDy=0;" edge="1" parent="1" source="0cM0iwl9llJngKbin_6Q-1">
          <mxGeometry relative="1" as="geometry">
            <mxPoint x="330" y="330" as="targetPoint" />
          </mxGeometry>
        </mxCell>
        <mxCell id="0cM0iwl9llJngKbin_6Q-1" value="" style="shape=image;html=1;verticalAlign=top;verticalLabelPosition=bottom;labelBackgroundColor=#ffffff;imageAspect=0;aspect=fixed;image=https://cdn0.iconfinder.com/data/icons/hand-washing/512/Hand-wash-washing-cleaning-hygiene-19-128.png" vertex="1" parent="1">
          <mxGeometry x="100" y="160" width="60" height="60" as="geometry" />
        </mxCell>
        <mxCell id="0cM0iwl9llJngKbin_6Q-10" style="edgeStyle=orthogonalEdgeStyle;rounded=0;orthogonalLoop=1;jettySize=auto;html=1;" edge="1" parent="1" source="0cM0iwl9llJngKbin_6Q-2">
          <mxGeometry relative="1" as="geometry">
            <mxPoint x="330" y="330" as="targetPoint" />
            <Array as="points">
              <mxPoint x="330" y="270" />
              <mxPoint x="330" y="270" />
            </Array>
          </mxGeometry>
        </mxCell>
        <mxCell id="0cM0iwl9llJngKbin_6Q-2" value="" style="shape=image;html=1;verticalAlign=top;verticalLabelPosition=bottom;labelBackgroundColor=#ffffff;imageAspect=0;aspect=fixed;image=https://cdn0.iconfinder.com/data/icons/hand-washing/512/Hand-wash-washing-cleaning-hygiene-19-128.png" vertex="1" parent="1">
          <mxGeometry x="300" y="160" width="60" height="60" as="geometry" />
        </mxCell>
        <mxCell id="0cM0iwl9llJngKbin_6Q-14" style="edgeStyle=orthogonalEdgeStyle;rounded=0;orthogonalLoop=1;jettySize=auto;html=1;exitX=0.5;exitY=1;exitDx=0;exitDy=0;" edge="1" parent="1" source="0cM0iwl9llJngKbin_6Q-3">
          <mxGeometry relative="1" as="geometry">
            <mxPoint x="330" y="330" as="targetPoint" />
          </mxGeometry>
        </mxCell>
        <mxCell id="0cM0iwl9llJngKbin_6Q-3" value="" style="shape=image;html=1;verticalAlign=top;verticalLabelPosition=bottom;labelBackgroundColor=#ffffff;imageAspect=0;aspect=fixed;image=https://cdn0.iconfinder.com/data/icons/hand-washing/512/Hand-wash-washing-cleaning-hygiene-19-128.png" vertex="1" parent="1">
          <mxGeometry x="500" y="160" width="60" height="60" as="geometry" />
        </mxCell>
        <mxCell id="0cM0iwl9llJngKbin_6Q-20" style="edgeStyle=orthogonalEdgeStyle;rounded=0;orthogonalLoop=1;jettySize=auto;html=1;" edge="1" parent="1" source="0cM0iwl9llJngKbin_6Q-18" target="0cM0iwl9llJngKbin_6Q-19">
          <mxGeometry relative="1" as="geometry" />
        </mxCell>
        <mxCell id="0cM0iwl9llJngKbin_6Q-22" style="edgeStyle=orthogonalEdgeStyle;rounded=0;orthogonalLoop=1;jettySize=auto;html=1;entryX=1;entryY=0.5;entryDx=0;entryDy=0;" edge="1" parent="1" source="0cM0iwl9llJngKbin_6Q-18" target="0cM0iwl9llJngKbin_6Q-21">
          <mxGeometry relative="1" as="geometry" />
        </mxCell>
        <mxCell id="0cM0iwl9llJngKbin_6Q-18" value="" style="shape=image;html=1;verticalAlign=top;verticalLabelPosition=bottom;labelBackgroundColor=#ffffff;imageAspect=0;aspect=fixed;image=https://cdn3.iconfinder.com/data/icons/water-activity/32/01_-_No_Water-128.png" vertex="1" parent="1">
          <mxGeometry x="300" y="330" width="60" height="60" as="geometry" />
        </mxCell>
        <mxCell id="0cM0iwl9llJngKbin_6Q-27" style="edgeStyle=orthogonalEdgeStyle;rounded=0;orthogonalLoop=1;jettySize=auto;html=1;exitX=0.5;exitY=1;exitDx=0;exitDy=0;entryX=0.5;entryY=0;entryDx=0;entryDy=0;" edge="1" parent="1" source="0cM0iwl9llJngKbin_6Q-19" target="0cM0iwl9llJngKbin_6Q-23">
          <mxGeometry relative="1" as="geometry" />
        </mxCell>
        <mxCell id="0cM0iwl9llJngKbin_6Q-39" style="edgeStyle=orthogonalEdgeStyle;rounded=0;orthogonalLoop=1;jettySize=auto;html=1;exitX=1;exitY=0.5;exitDx=0;exitDy=0;entryX=0;entryY=0.5;entryDx=0;entryDy=0;" edge="1" parent="1" source="0cM0iwl9llJngKbin_6Q-19" target="0cM0iwl9llJngKbin_6Q-38">
          <mxGeometry relative="1" as="geometry" />
        </mxCell>
        <mxCell id="0cM0iwl9llJngKbin_6Q-19" value="" style="image;html=1;image=img/lib/clip_art/general/Earth_globe_128x128.png" vertex="1" parent="1">
          <mxGeometry x="425" y="330" width="80" height="60" as="geometry" />
        </mxCell>
        <mxCell id="0cM0iwl9llJngKbin_6Q-32" style="edgeStyle=orthogonalEdgeStyle;rounded=0;orthogonalLoop=1;jettySize=auto;html=1;exitX=0.5;exitY=1;exitDx=0;exitDy=0;entryX=0.5;entryY=0;entryDx=0;entryDy=0;" edge="1" parent="1" source="0cM0iwl9llJngKbin_6Q-21" target="0cM0iwl9llJngKbin_6Q-23">
          <mxGeometry relative="1" as="geometry" />
        </mxCell>
        <mxCell id="0cM0iwl9llJngKbin_6Q-21" value="" style="image;html=1;image=img/lib/clip_art/general/Earth_globe_128x128.png" vertex="1" parent="1">
          <mxGeometry x="160" y="330" width="80" height="60" as="geometry" />
        </mxCell>
        <mxCell id="0cM0iwl9llJngKbin_6Q-35" style="edgeStyle=orthogonalEdgeStyle;rounded=0;orthogonalLoop=1;jettySize=auto;html=1;exitX=0.5;exitY=1;exitDx=0;exitDy=0;" edge="1" parent="1" source="0cM0iwl9llJngKbin_6Q-23" target="0cM0iwl9llJngKbin_6Q-34">
          <mxGeometry relative="1" as="geometry" />
        </mxCell>
        <mxCell id="0cM0iwl9llJngKbin_6Q-23" value="" style="shape=image;html=1;verticalAlign=top;verticalLabelPosition=bottom;labelBackgroundColor=#ffffff;imageAspect=0;aspect=fixed;image=https://cdn4.iconfinder.com/data/icons/free-valentine-s-emoji/64/heart-emoji-emotion-dead-kill-128.png" vertex="1" parent="1">
          <mxGeometry x="296" y="482" width="68" height="68" as="geometry" />
        </mxCell>
        <mxCell id="0cM0iwl9llJngKbin_6Q-34" value="" style="shape=image;html=1;verticalAlign=top;verticalLabelPosition=bottom;labelBackgroundColor=#ffffff;imageAspect=0;aspect=fixed;image=https://cdn4.iconfinder.com/data/icons/desktop-halloween/48/Skull_and_bones.png" vertex="1" parent="1">
          <mxGeometry x="305" y="620" width="50" height="50" as="geometry" />
        </mxCell>
        <mxCell id="0cM0iwl9llJngKbin_6Q-36" value="" style="shape=image;html=1;verticalAlign=top;verticalLabelPosition=bottom;labelBackgroundColor=#ffffff;imageAspect=0;aspect=fixed;image=https://cdn4.iconfinder.com/data/icons/desktop-halloween/48/Hatchet.png" vertex="1" parent="1">
          <mxGeometry x="140" y="330" width="48" height="48" as="geometry" />
        </mxCell>
        <mxCell id="0cM0iwl9llJngKbin_6Q-37" value="" style="shape=image;html=1;verticalAlign=top;verticalLabelPosition=bottom;labelBackgroundColor=#ffffff;imageAspect=0;aspect=fixed;image=https://cdn4.iconfinder.com/data/icons/desktop-halloween/48/Hatchet.png" vertex="1" parent="1">
          <mxGeometry x="401" y="336" width="48" height="48" as="geometry" />
        </mxCell>
        <mxCell id="0cM0iwl9llJngKbin_6Q-38" value="" style="shape=image;html=1;verticalAlign=top;verticalLabelPosition=bottom;labelBackgroundColor=#ffffff;imageAspect=0;aspect=fixed;image=https://cdn2.iconfinder.com/data/icons/Siena/128/globe%20green.png" vertex="1" parent="1">
          <mxGeometry x="600" y="332.5" width="55" height="55" as="geometry" />
        </mxCell>
        <mxCell id="0cM0iwl9llJngKbin_6Q-40" value="wast water" style="text;html=1;resizable=0;autosize=1;align=center;verticalAlign=middle;points=[];fillColor=none;strokeColor=none;rounded=0;" vertex="1" parent="1">
          <mxGeometry x="515" y="130" width="70" height="20" as="geometry" />
        </mxCell>
        <mxCell id="0cM0iwl9llJngKbin_6Q-42" value="wast water" style="text;html=1;resizable=0;autosize=1;align=center;verticalAlign=middle;points=[];fillColor=none;strokeColor=none;rounded=0;" vertex="1" parent="1">
          <mxGeometry x="100" y="130" width="70" height="20" as="geometry" />
        </mxCell>
        <mxCell id="0cM0iwl9llJngKbin_6Q-43" value="wast water" style="text;html=1;resizable=0;autosize=1;align=center;verticalAlign=middle;points=[];fillColor=none;strokeColor=none;rounded=0;" vertex="1" parent="1">
          <mxGeometry x="310" y="130" width="70" height="20" as="geometry" />
        </mxCell>
        <mxCell id="0cM0iwl9llJngKbin_6Q-44" value="no water" style="text;html=1;resizable=0;autosize=1;align=center;verticalAlign=middle;points=[];fillColor=none;strokeColor=none;rounded=0;" vertex="1" parent="1">
          <mxGeometry x="340" y="330" width="60" height="20" as="geometry" />
        </mxCell>
        <mxCell id="0cM0iwl9llJngKbin_6Q-45" value="kill earth" style="text;html=1;resizable=0;autosize=1;align=center;verticalAlign=middle;points=[];fillColor=none;strokeColor=none;rounded=0;" vertex="1" parent="1">
          <mxGeometry x="597.5" y="387.5" width="60" height="20" as="geometry" />
        </mxCell>
      </root>
    </mxGraphModel>
  </diagram>
</mxfile>
